<svg width="256" height="256" viewBox="0 0 16 16" xmlns="http://www.w3.org/2000/svg"><rect x="0" y="0" width="16" height="16" rx="13" fill="none"/><svg xmlns="http://www.w3.org/2000/svg" viewBox="0 0 16 16" fill="#006efa" x="0" y="0" width="16" height="16"><path fill="#0047AB" d="M4.5 2A2.5 2.5 0 0 0 2 4.5v7A2.5 2.5 0 0 0 4.5 14h7a2.5 2.5 0 0 0 2.5-2.5v-7A2.5 2.5 0 0 0 11.5 2h-7Zm6.354 4.854l-3.5 3.5a.5.5 0 0 1-.708 0l-1.5-1.5a.5.5 0 1 1 .708-.708L7 9.293l3.146-3.147a.5.5 0 0 1 .708.708Z"/></svg></svg>