
<svg width="160" height="160" viewBox="0 0 160 160" fill="none" xmlns="http://www.w3.org/2000/svg">
<rect width="160" height="160" rx="12" fill="#E0F2FE"/>
<path d="M106.326 64.7026L95.1431 68.9262L94.6562 69.109L93.9693 69.3704L96.9969 82.1504L43.3618 102.745L42.1248 102.612L34.7523 91.7902L23.5186 96.3417L30.6637 106.899L33.5649 105.513L52.9314 133.308L109.78 111.261L104.356 78.3181L107.718 76.7821L106.326 64.7026Z" fill="#FF66CC"/>
<path d="M94.0533 66.6452L94.6564 69.109L93.9695 69.3704L93.2759 66.4453L94.0533 66.6452Z" fill="#FFE5BB"/>
<path d="M94.6114 66.789L95.1428 68.9265L94.6559 69.1093L94.0527 66.6455L94.6114 66.789Z" fill="#B57402"/>
<path d="M96.9971 82.1503L43.362 102.745L42.125 102.612L96.3445 81.824L96.9971 82.1503Z" fill="#B57402"/>
<path d="M93.9704 69.3708L96.9979 82.1508L96.3453 81.8245L93.4254 69.5776L92.6411 66.28L93.2767 66.4458L93.9704 69.3708Z" fill="#F9A806"/>
<path d="M136.928 28.9989C137.579 29.9899 137.869 31.0919 137.792 32.2862C137.782 32.3579 137.768 32.4314 137.751 32.5032C137.121 35.4675 133.265 40.8819 118.467 49.8382C114.611 52.1721 110.421 52.8043 106.37 53.4159C99.3052 54.4838 91.9277 53.8755 91.5518 64.7864C91.5449 64.9966 91.5313 65.3263 91.5193 65.6971C91.5176 65.7911 91.5125 65.8867 91.5108 65.9841L90.1832 66.2148C90.1918 65.8577 90.2088 65.5108 90.2311 65.1743C90.923 54.289 97.4993 53.515 104.429 52.7035C108.403 52.237 112.514 51.7552 116.348 49.5614C131.064 41.145 134.992 35.8742 135.694 32.9337C135.954 31.8471 135.815 30.9142 135.27 30.0872C134.539 28.9733 133.647 28.3582 132.545 28.2095C128.407 27.644 121.843 33.3745 116.051 38.4301C110.337 43.4174 105.405 47.7264 101.989 47.1506C100.92 46.9712 100.074 46.3493 99.4761 45.302C98.0323 42.7784 95.6694 39.8773 92.6282 40.395C88.9684 41.0169 85.3036 46.3903 84.1042 52.8948C83.6753 55.2184 82.669 57.1765 81.1928 58.5519C79.7798 59.8709 78.0371 60.5492 76.2858 60.4654C74.5294 60.38 72.896 59.5206 71.6812 58.0461C70.3844 56.4691 69.5763 54.207 69.3405 51.4989C68.8604 45.9803 65.9217 44.4033 65.0332 44.053C63.5143 43.4516 61.9134 43.7625 60.6388 44.9039C57.6163 47.6136 57.0782 53.8516 59.1968 61.5914C60.5602 66.5736 60.4098 71.0671 58.7508 74.9472C58.2126 76.2013 57.5224 77.3853 56.6818 78.4908C55.8121 78.935 55.0005 79.246 54.2607 79.4561C55.754 78.0329 56.909 76.4234 57.7086 74.6482C59.2497 71.2174 59.4445 67.1647 58.2844 62.6046C55.1594 50.3217 58.9012 45.4746 60.6559 43.9591C62.4311 42.4231 64.7205 41.9805 66.834 42.746H66.8375V42.7494C69.3268 44.2734 70.9705 47.3847 71.3156 51.3298C71.7615 56.4503 74.2253 58.3861 76.3815 58.4903C78.6146 58.598 81.3722 56.7801 82.1564 52.5377C82.7852 49.1292 84.0871 45.8521 85.8213 43.3098C87.7229 40.5231 89.9628 38.8402 92.2984 38.4438C94.6016 38.0526 98.0153 38.7548 101.197 44.3213C101.588 45.003 102.025 45.1482 102.321 45.1978C104.81 45.6164 109.864 41.2066 114.752 36.9386C121.159 31.343 127.785 25.5596 132.815 26.2464C134.496 26.4771 135.88 27.4014 136.929 29.0006L136.928 28.9989Z" fill="#F84F0C"/>
<path d="M56.6817 78.4912C56.111 79.2464 55.4686 79.964 54.7595 80.644L50.8931 82.1099L51.1374 81.9271C51.5679 81.6076 51.8191 81.4197 51.9882 81.3086L51.9814 81.3018C52.8118 80.7277 53.5721 80.111 54.2606 79.4566C55.0004 79.2464 55.812 78.9354 56.6817 78.4912Z" fill="#B73204"/>
<path d="M91.5115 65.9841L92.1761 65.8679C92.1676 66.0627 92.1624 66.2626 92.159 66.4625L91.4927 66.7154C91.4978 66.4745 91.5046 66.225 91.5115 65.9841Z" fill="#4D1502"/>
<path d="M52.7771 79.7719C53.2333 79.7087 53.727 79.6079 54.2584 79.4558C53.5698 80.1102 52.8095 80.7269 51.9792 81.301L51.986 81.3079C51.8186 81.4189 51.5657 81.6069 51.1351 81.9264L50.8908 82.1092L48.7329 82.9276L50.4927 81.5641C50.9164 81.2361 51.1659 81.043 51.3299 80.9286L51.3231 80.9217C51.8357 80.5544 52.3209 80.17 52.7771 79.7702V79.7719Z" fill="#4D1502"/>
<path d="M90.1833 66.2162L91.5109 65.9856C91.5023 66.2265 91.4972 66.476 91.4921 66.7169L90.1714 67.2175C90.1714 66.8757 90.1748 66.5409 90.185 66.2179L90.1833 66.2162Z" fill="#B73204"/>
<path d="M137.753 32.5053C137.768 32.4336 137.782 32.3601 137.794 32.29C137.77 32.6523 137.713 33.0213 137.623 33.3989C136.466 38.2273 130.56 44.1389 118.251 51.1782C114.067 53.5736 108.641 54.2075 104.663 54.6739C100.959 55.1096 97.757 55.4854 95.5376 57.1855C93.4326 58.8001 92.3477 61.585 92.1768 65.8701L91.5122 65.9863C91.5139 65.8889 91.5173 65.7932 91.5208 65.6992C91.5327 65.3285 91.5447 65.0004 91.5532 64.7886C91.9291 53.8777 99.3067 54.4859 106.372 53.4181C110.423 52.8064 114.614 52.1743 118.468 49.8404C133.266 40.8841 137.124 35.4697 137.753 32.5053Z" fill="#B73204"/>
<path d="M65.7622 42.2096C66.1346 42.3566 66.4917 42.536 66.8334 42.7444C64.7182 41.9807 62.4305 42.4232 60.6553 43.9575C58.9006 45.473 55.1588 50.3202 58.2838 62.603C59.4422 67.1649 59.2491 71.2176 57.708 74.6466C56.9084 76.4218 55.7534 78.0313 54.2601 79.4546C53.7305 79.6066 53.235 79.7074 52.7788 79.7706C54.6377 78.1441 56.0302 76.2663 56.9289 74.1665C58.4085 70.7084 58.5298 66.654 57.286 62.1144C53.9389 49.8913 57.5918 44.9758 59.3175 43.4278C61.1439 41.791 63.553 41.3366 65.7622 42.2079V42.2096Z" fill="#B73204"/>
<path d="M80.8454 109.221L72.9348 112.117L71.9336 112.484L67.8501 102.289L77.0575 98.8604L77.43 99.8804L80.8454 109.221Z" fill="#A835BC"/>
<path d="M46.7404 94.4728C46.9044 95.896 45.8844 97.1809 44.4629 97.3449C44.2527 97.3688 44.046 97.3671 43.8461 97.3415C42.686 97.1996 41.7326 96.2787 41.5925 95.0674C41.4285 93.6458 42.4485 92.3593 43.87 92.1953C44.6337 92.1064 45.3565 92.361 45.8895 92.8343C46.3491 93.2426 46.6669 93.815 46.7421 94.4728H46.7404Z" fill="#A835BC"/>
<path d="M54.4799 90.3588L50.2614 91.9768L49.2551 92.3629L47.186 87.0339V87.0322L52.4211 85.0571L52.8157 86.0738L54.4799 90.3588Z" fill="#A835BC"/>
<path d="M82.143 79.7351L77.9262 81.3548L76.9199 81.7409L74.9106 76.5657L80.1474 74.5906L80.5404 75.6072L82.143 79.7351Z" fill="#A835BC"/>
<path d="M92.0081 77.7578C92.196 79.3895 91.024 80.8657 89.3923 81.0537C89.1121 81.0861 88.8336 81.0776 88.5688 81.0349C87.2908 80.8264 86.252 79.791 86.0965 78.4396C85.9085 76.8079 87.0789 75.3317 88.7106 75.1437C89.5443 75.0481 90.3388 75.3061 90.9385 75.7998C91.516 76.2697 91.9158 76.9582 92.0081 77.7578Z" fill="#A835BC"/>
<path d="M64.8792 107.755C65.5644 108.711 66.0188 109.848 66.1538 111.099C66.3896 113.291 65.5951 115.357 64.1565 116.813L62.8477 115.292L61.0401 116.739L62.1455 118.236C61.457 118.56 60.7035 118.777 59.9022 118.865C58.1543 119.052 56.4868 118.586 55.1438 117.66L56.7174 116.09L55.2019 114.412L53.4575 116.023C52.7467 115.054 52.2735 113.891 52.1351 112.611C51.9232 110.65 52.5383 108.789 53.6984 107.378L54.9713 108.818L56.6525 107.284L55.3796 105.893C56.2612 105.336 57.2813 104.965 58.3867 104.846C60.1499 104.656 61.8311 105.133 63.1792 106.076L61.3562 107.738L62.9622 109.423L64.8775 107.754L64.8792 107.755Z" fill="#770462"/>
<path d="M97.1862 98.6396L94.5192 98.6619L94.5892 100.989L97.1486 101.027C96.5882 104.001 94.1416 106.385 90.9773 106.726L90.9483 106.73L90.979 105.231L88.6656 105.1L88.5255 106.561C85.7696 105.879 83.5946 103.56 83.2256 100.591L85.7355 100.459L85.7286 98.1989L83.3264 98.233C83.9466 95.3421 86.3574 93.0424 89.4601 92.7058L89.4413 95.1525L91.7171 95.1354L91.6932 92.822C94.4884 93.4166 96.7317 95.689 97.1845 98.6396H97.1862Z" fill="#770462"/>
<path d="M93.4247 69.5776L96.3446 81.8262L42.1234 102.614L34.751 91.7906L32.8237 88.9629L48.7304 82.9316L50.8883 82.1132L54.7548 80.6473L90.1664 67.2197L91.4871 66.7191L92.1535 66.4663L92.6353 66.2834L93.4213 69.5793L93.4247 69.5776ZM92.0083 77.7581C91.8203 76.1264 90.3441 74.9561 88.7107 75.144C87.0791 75.332 85.9087 76.8082 86.0966 78.4398C86.2846 80.0715 87.7608 81.2419 89.3925 81.0539C91.0241 80.866 92.1962 79.3898 92.0083 77.7581ZM82.143 79.7349L80.1474 74.5904L74.9124 76.5656L76.9217 81.7408L82.1447 79.7349H82.143ZM54.4797 90.3588L52.4209 85.0571L47.1859 87.0322L49.255 92.3629L54.4797 90.357V90.3588ZM46.74 94.473C46.5759 93.0515 45.2894 92.0314 43.8679 92.1955C42.4463 92.3595 41.4263 93.646 41.5904 95.0676C41.7544 96.4908 43.0392 97.5091 44.4624 97.3451C45.8857 97.1811 46.904 95.8962 46.74 94.473Z" fill="#FCF508"/>
<path d="M62.846 115.293L64.1547 116.814C63.579 117.396 62.9007 117.881 62.1421 118.237L61.0366 116.74L62.8443 115.293H62.846Z" fill="#FEFEF0"/>
<path d="M55.2024 114.413L56.7179 116.091L55.1444 117.661C54.4968 117.215 53.9262 116.662 53.458 116.026L55.2024 114.415V114.413Z" fill="#FEFEF0"/>
<path d="M55.3795 105.894L56.6523 107.285L54.9711 108.819L53.6982 107.379C54.1732 106.8 54.7388 106.298 55.3778 105.894H55.3795Z" fill="#FEFEF0"/>
<path d="M64.8802 107.755L62.9649 109.424L61.3589 107.739L63.1819 106.077C63.8363 106.533 64.4138 107.1 64.8802 107.755Z" fill="#FEFEF0"/>
<path d="M97.1868 98.6396C97.2039 98.7456 97.2193 98.8532 97.2313 98.9609C97.3081 99.6682 97.2757 100.362 97.151 101.027L94.5915 100.989L94.5215 98.6619L97.1885 98.6396H97.1868Z" fill="#FEFEF0"/>
<path d="M85.7325 98.2009L85.7393 100.461L83.2294 100.593C83.2243 100.554 83.2192 100.514 83.2141 100.475C83.1303 99.7061 83.1748 98.9527 83.3285 98.2368L85.7308 98.2026L85.7325 98.2009Z" fill="#FEFEF0"/>
<path d="M91.6953 92.8227L91.7192 95.1361L89.4434 95.1532L89.4622 92.7065H89.4656C90.231 92.6228 90.9828 92.6672 91.6953 92.821V92.8227Z" fill="#FEFEF0"/>
<path d="M90.9818 105.232L90.951 106.73C90.1173 106.815 89.2989 106.752 88.5283 106.563L88.6684 105.102L90.9818 105.233V105.232Z" fill="#FEFEF0"/>
<path d="M97.8684 90.9052C100.019 92.7692 101.499 95.4175 101.827 98.4622C101.837 98.5698 101.849 98.6774 101.858 98.7851C102.213 103.205 99.524 107.309 95.379 108.886L88.9805 111.322L67.6952 119.723L62.0758 121.863C58.6399 123.17 54.7358 122.536 51.9594 120.128C49.8083 118.264 48.3287 115.616 48.0007 112.571C47.9904 112.464 47.9785 112.356 47.9699 112.249C47.6145 107.829 50.3038 103.725 54.4488 102.148L60.8473 99.7111L82.1326 91.3101L87.752 89.171C91.1879 87.8622 95.0903 88.4961 97.8684 90.9052ZM97.2311 98.9611C97.2209 98.8534 97.2055 98.7458 97.1867 98.6398C96.7339 95.6892 94.4906 93.4185 91.6954 92.8222C90.9829 92.6685 90.2312 92.624 89.4657 92.7077H89.4623C86.3613 93.0443 83.9488 95.344 83.3286 98.2349C83.1748 98.9525 83.1304 99.706 83.2141 100.475C83.2192 100.514 83.2226 100.553 83.2295 100.593C83.5985 103.562 85.7718 105.881 88.5294 106.562C89.3 106.752 90.1167 106.815 90.9522 106.73L90.9812 106.726C94.1455 106.385 96.5921 104 97.1525 101.027C97.2773 100.362 97.3097 99.6684 97.2328 98.9611H97.2311ZM80.846 109.221L77.0564 98.8602L67.849 102.289L71.9325 112.484L80.846 109.221ZM66.1524 111.099C66.0174 109.848 65.563 108.71 64.8778 107.755C64.4097 107.102 63.8339 106.533 63.1795 106.077C61.8315 105.134 60.1502 104.657 58.387 104.847C57.2799 104.967 56.2598 105.337 55.3799 105.894C54.7409 106.298 54.1754 106.8 53.7004 107.379C52.5386 108.79 51.9252 110.651 52.1371 112.612C52.2755 113.892 52.747 115.056 53.4595 116.024C53.9277 116.66 54.4983 117.214 55.1459 117.66C56.4871 118.584 58.1563 119.052 59.9042 118.864C60.7038 118.777 61.459 118.562 62.1475 118.235C62.9061 117.88 63.5844 117.395 64.1602 116.812C65.5971 115.356 66.3916 113.291 66.1575 111.099H66.1524Z" fill="#FFE5BB"/>
<path d="M105.166 107.854C106.015 107.757 106.784 108.365 106.881 109.214C106.979 110.063 106.369 110.83 105.521 110.928C104.674 111.025 103.905 110.417 103.808 109.568C103.71 108.719 104.318 107.95 105.168 107.852L105.166 107.854Z" fill="#AF0E89"/>
<path d="M54.7728 127.207C55.622 127.109 56.3891 127.718 56.4865 128.567C56.5839 129.416 55.9756 130.185 55.1265 130.282C54.2773 130.38 53.5085 129.771 53.4111 128.922C53.3137 128.073 53.9237 127.306 54.7711 127.208L54.7728 127.207Z" fill="#AF0E89"/>
<path d="M34.9514 99.812L34.8728 100.005L34.3056 101.401L32.4757 100.656L31.9102 102.214L30.9619 101.871L30.2956 101.628L30.8116 100.207L30.8833 100.008L29.6617 99.5113L28.9971 99.2413L29.6446 97.6507L31.4694 98.3939L32.0349 96.8374L33.6495 97.4251L33.5675 97.6473L33.0617 99.0414L33.7195 99.308L34.9514 99.812Z" fill="#AF0E89"/>
<path d="M103.466 71.9403L100.091 74.9764L99.4028 71.3098L103.466 71.9403Z" fill="#AF0E89"/>
<path d="M110.108 78.1798L106.648 79.6816L104.355 78.3182L107.718 76.7822L110.108 78.1798Z" fill="#AF0E89"/>
<path d="M111.471 109.313L109.783 111.261L104.358 78.3184L106.651 79.6818C108.067 88.2365 111.472 109.313 111.472 109.313H111.471Z" fill="#D82EA8"/>
<path d="M108.821 66.4625L110.108 78.1797L107.718 76.7822L106.325 64.7026L108.821 66.4625Z" fill="#D82EA8"/>
<path d="M106.881 109.214C106.979 110.063 106.369 110.83 105.521 110.928C105.231 110.962 104.952 110.912 104.704 110.798C104.539 110.583 104.428 110.321 104.394 110.032C104.296 109.183 104.904 108.414 105.754 108.317C106.044 108.283 106.323 108.332 106.572 108.445C106.739 108.662 106.85 108.925 106.885 109.214H106.881Z" fill="#770462"/>
<path d="M56.4869 128.566C56.5843 129.415 55.976 130.184 55.1269 130.281C54.8381 130.314 54.5579 130.266 54.3085 130.151C54.1427 129.936 54.0317 129.673 53.9975 129.384C53.9001 128.535 54.5101 127.768 55.3575 127.67C55.6463 127.638 55.9265 127.686 56.1742 127.799C56.3417 128.014 56.4527 128.277 56.4852 128.566H56.4869Z" fill="#770462"/>
<path d="M103.111 72.2582L100.517 74.5938L99.9873 71.7747L103.111 72.2582Z" fill="#770462"/>
<path d="M34.9504 99.8118L34.3045 101.401L32.4746 100.656L31.9091 102.214L30.2945 101.628L30.8823 100.008L29.6606 99.5111L30.2296 98.1152L32.0543 98.8584L32.7036 97.0815L33.6484 97.425L33.0607 99.0413L34.9504 99.8118Z" fill="#770462"/>
<path d="M80.846 109.221L72.9354 112.117L69.2534 102.926L77.4306 99.8799L80.846 109.221Z" fill="#D471E2"/>
<path d="M46.7395 94.4728C46.9035 95.8961 45.8835 97.1809 44.462 97.3449C44.2519 97.3688 44.0451 97.3671 43.8452 97.3415C43.3873 96.9349 43.0695 96.3625 42.9944 95.703C42.8303 94.2815 43.8503 92.9949 45.2719 92.8309C45.482 92.807 45.6888 92.8087 45.8887 92.8343C46.3483 93.2427 46.6661 93.815 46.7412 94.4728H46.7395Z" fill="#D471E2"/>
<path d="M54.4795 90.3585L50.2611 91.9765L48.5884 87.6693V87.6675L52.8154 86.0735L54.4795 90.3585Z" fill="#D471E2"/>
<path d="M82.1421 79.7346L77.9254 81.3543L76.3125 77.2025L80.5395 75.6067L82.1421 79.7346Z" fill="#D471E2"/>
<path d="M92.0082 77.7579C92.1961 79.3895 91.0241 80.8657 89.3924 81.0537C89.1122 81.0861 88.8337 81.0776 88.5689 81.0349C87.9931 80.5633 87.5916 79.8748 87.4993 79.0752C87.3114 77.4435 88.4817 75.9673 90.1134 75.7794C90.3953 75.7469 90.6721 75.7554 90.9386 75.7999C91.5161 76.2697 91.9159 76.9583 92.0082 77.7579Z" fill="#D471E2"/>
<path d="M98.7322 89.9078C96.3727 87.8627 93.2119 86.8974 90.0613 87.2596C89.1113 87.3689 88.1767 87.5962 87.2815 87.9379L81.662 90.077L60.3938 98.4694L53.9782 100.913C49.266 102.707 46.2538 107.41 46.6519 112.351C46.6604 112.469 46.6724 112.589 46.6861 112.714C47.0397 115.98 48.6048 118.969 51.0942 121.128C53.4554 123.175 56.6162 124.141 59.7685 123.777C60.7168 123.667 61.6514 123.438 62.5449 123.098L68.1644 120.959L89.4308 112.567L95.8482 110.124C100.56 108.33 103.573 103.626 103.174 98.6847C103.166 98.5668 103.154 98.4472 103.14 98.3225C102.787 95.0557 101.222 92.0675 98.7322 89.9078ZM101.857 98.7872C102.213 103.207 99.5233 107.311 95.3783 108.888L88.9798 111.325L67.6945 119.726L62.0751 121.865C58.6392 123.172 54.7351 122.538 51.9587 120.131C49.8076 118.267 48.328 115.618 48 112.574C47.9897 112.466 47.9777 112.358 47.9692 112.251C47.6138 107.831 50.3031 103.727 54.4481 102.15L60.8466 99.7133L82.1319 91.3123L87.7513 89.1732C91.1872 87.8644 95.0896 88.4983 97.8677 90.9073C100.019 92.7714 101.498 95.4197 101.826 98.4643C101.837 98.572 101.849 98.6796 101.857 98.7872Z" fill="#FEFEF0"/>
</svg>
