<svg id="Grid interface" width="20" height="20" viewBox="0 0 24 24" fill="currentColor" xmlns="http://www.w3.org/2000/svg"><path fill-rule="evenodd" clip-rule="evenodd" d="M8.51379 2.32286C9.87146 2.36402 10.9892 3.40648 11.1233 4.76C11.2743 5.99324 11.2742 7.239 11.123 8.47223C10.982 9.8199 9.869 10.8569 8.51595 10.903C7.41981 11.0023 6.31669 11.0023 5.22055 10.903C3.8675 10.8569 2.75449 9.8199 2.61346 8.47223C2.46211 7.23765 2.46218 5.99052 2.61368 4.75596C2.76039 3.41203 3.86881 2.377 5.21882 2.3232C6.31481 2.22571 7.41779 2.2256 8.51379 2.32286ZM8.40348 3.81898C7.38224 3.72701 6.35426 3.72701 5.33302 3.81898C5.31847 3.82029 5.30388 3.82117 5.28927 3.82163C4.676 3.84087 4.16979 4.31046 4.10451 4.92166L4.10323 4.93364L4.10313 4.93363C3.96562 6.05077 3.96562 7.17923 4.10313 8.29637L4.10491 8.31225C4.16677 8.92148 4.672 9.38939 5.28393 9.40422C5.30078 9.40463 5.31762 9.40561 5.33441 9.40715C6.35473 9.50095 7.38177 9.50095 8.40209 9.40715C8.41888 9.40561 8.43572 9.40463 8.45257 9.40422C9.0645 9.38939 9.56973 8.92148 9.63159 8.31225L9.63337 8.29637C9.77088 7.17923 9.77088 6.05077 9.63337 4.93363L9.63111 4.91296C9.57315 4.30313 9.06771 3.83418 8.45565 3.82185C8.43823 3.8215 8.42083 3.82054 8.40348 3.81898Z" fill="currentColor"></path><path fill-rule="evenodd" clip-rule="evenodd" d="M8.51339 13.0908C9.87173 13.1318 10.9892 14.1757 11.1233 15.5289C11.2743 16.7608 11.2742 18.0072 11.1232 19.2391C10.9855 20.5901 9.86941 21.63 8.51555 21.6769C7.41968 21.7743 6.31683 21.7743 5.22096 21.6769C3.86513 21.63 2.75204 20.5892 2.61337 19.2394C2.46209 18.0049 2.46221 16.7579 2.61373 15.5235C2.7617 14.1799 3.87065 13.1492 5.21806 13.0952C6.31442 12.9956 7.41656 12.9945 8.51339 13.0908ZM8.40424 14.587C7.38194 14.4959 6.35518 14.4969 5.33441 14.5908C5.3194 14.5921 5.30436 14.5931 5.28929 14.5935C4.67558 14.6128 4.17021 15.0809 4.10442 15.6904L4.10322 15.7016L4.10313 15.7015C3.96562 16.8187 3.96562 17.9471 4.10313 19.0643L4.10508 19.0818C4.16575 19.6929 4.67132 20.1627 5.28465 20.1782C5.3008 20.1786 5.31693 20.1795 5.33302 20.1809C6.35426 20.2729 7.38224 20.2729 8.40348 20.1809C8.41956 20.1795 8.43569 20.1786 8.45184 20.1782C9.06506 20.1627 9.57144 19.6921 9.63135 19.0826L9.63338 19.0642C9.77087 17.9481 9.77087 16.8187 9.63338 15.7026L9.63111 15.6819C9.5731 15.0715 9.06718 14.6021 8.45565 14.5898C8.43848 14.5894 8.42134 14.5885 8.40424 14.587Z" fill="currentColor"></path><path fill-rule="evenodd" clip-rule="evenodd" d="M19.2768 13.0908C20.6348 13.1317 21.7526 14.1754 21.8857 15.5289C22.0377 16.7609 22.0376 18.0074 21.8856 19.2394C21.7478 20.5898 20.6332 21.63 19.279 21.6769C18.183 21.7743 17.08 21.7743 15.984 21.6769C14.6308 21.6289 13.5156 20.5906 13.3778 19.2394C13.2255 18.0049 13.2256 16.7579 13.3781 15.5235C13.5251 14.1795 14.6344 13.1492 15.9815 13.0952C17.0778 12.9956 18.18 12.9945 19.2768 13.0908ZM19.1677 14.587C18.1454 14.4959 17.1186 14.4969 16.0978 14.5908C16.0828 14.5921 16.0678 14.5931 16.0527 14.5935C15.4389 14.6128 14.934 15.0809 14.8689 15.6897L14.8676 15.7022L14.8675 15.7022C14.7291 16.8189 14.7291 17.9469 14.8675 19.0637L14.8696 19.0826C14.9295 19.692 15.4349 20.1621 16.0488 20.1782C16.0647 20.1786 16.0806 20.1795 16.0964 20.1809C17.1177 20.2729 18.1457 20.2729 19.1669 20.1809C19.183 20.1795 19.1991 20.1786 19.2153 20.1782C19.828 20.1627 20.3338 19.6926 20.3938 19.0826L20.3959 19.0636C20.5343 17.9479 20.5343 16.8189 20.3959 15.7032C20.395 15.6959 20.3942 15.6885 20.3935 15.6811C20.3361 15.0715 19.8307 14.6021 19.2191 14.5898C19.2019 14.5894 19.1848 14.5885 19.1677 14.587Z" fill="currentColor"></path><path fill-rule="evenodd" clip-rule="evenodd" d="M19.2772 2.32286C20.6336 2.36404 21.7525 3.40716 21.8857 4.75998C22.0377 5.99323 22.0376 7.23899 21.8855 8.47222C21.7454 9.82027 20.632 10.8569 19.2794 10.903C18.1832 11.0023 17.0801 11.0023 15.984 10.903C14.6313 10.8569 13.5179 9.82027 13.3779 8.47221C13.2255 7.23765 13.2256 5.99053 13.3781 4.75597C13.5238 3.41167 14.6326 2.37699 15.9822 2.3232C17.0782 2.22571 18.1812 2.2256 19.2772 2.32286ZM19.1669 3.81898C18.1457 3.72701 17.1177 3.72701 16.0964 3.81898C16.0819 3.82029 16.0673 3.82117 16.0527 3.82163C15.4393 3.84088 14.9336 4.31045 14.869 4.92091L14.8676 4.93426L14.8675 4.93425C14.7291 6.05098 14.7291 7.17902 14.8675 8.29575L14.8694 8.313C14.9306 8.92148 15.4353 9.38938 16.0473 9.40422C16.0642 9.40463 16.081 9.40561 16.0978 9.40715C17.1182 9.50095 18.1452 9.50095 19.1655 9.40715C19.1823 9.40561 19.1991 9.40463 19.216 9.40422C19.8281 9.38938 20.3328 8.92148 20.3939 8.313L20.3959 8.29575C20.5343 7.17902 20.5343 6.05098 20.3959 4.93425C20.395 4.92694 20.3942 4.91962 20.3935 4.91229C20.3362 4.3041 19.8302 3.83417 19.2191 3.82185C19.2016 3.8215 19.1842 3.82054 19.1669 3.81898Z" fill="currentColor"></path></svg>