
<svg width="161" height="161" viewBox="0 0 161 161" fill="none" xmlns="http://www.w3.org/2000/svg">
<g clip-path="url(#clip0_14_2200)">
<rect x="0.5" y="0.833252" width="160" height="160" rx="12" fill="#DDD6FE"/>
<path d="M56.1616 71.8418L55.1821 73.6569C55.5986 73.2743 56.0224 72.9283 56.4499 72.6244L56.1606 71.8418H56.1616Z" fill="#FFCE00"/>
<path d="M69.1551 49.8113C68.6901 49.5568 68.1061 49.7289 67.8544 50.1948L56.1616 71.8411L56.4509 72.6238C56.5863 72.5277 56.7236 72.4334 56.86 72.3464L69.5176 51.1394C69.7949 50.6735 69.6302 50.0712 69.1551 49.8103V49.8113ZM68.9372 51.1083L67.2155 54.1491C67.0946 54.3606 66.8264 54.4338 66.615 54.3148C66.4044 54.1949 66.3303 53.9258 66.4493 53.7152L68.1711 50.6744C68.2526 50.5316 68.4017 50.4511 68.5546 50.4511C68.6278 50.4511 68.7029 50.4685 68.7716 50.5078C68.9821 50.6268 69.0562 50.896 68.9372 51.1074V51.1083Z" fill="#FFCE00"/>
<path d="M130.573 144.354L130.229 145.871H130.228C129.443 145.835 128.667 145.74 127.929 145.57L128.234 144.225H128.235L128.299 143.944L130.574 144.354H130.573Z" fill="#CC4F00"/>
<path d="M120.093 124.57C120.057 125.488 120.033 126.582 120.038 127.771C120.042 128.551 120.06 129.372 120.098 130.212C117.949 130.436 115.668 130.014 113.84 128.118C113.194 127.446 112.712 126.435 112.376 125.139C115.404 124.513 118.499 125.506 119.537 125.894C119.716 125.96 119.909 125.834 119.916 125.642L119.96 124.566L120.092 124.571L120.093 124.57Z" fill="#FF6300"/>
<path d="M47.9389 104.864C49.7851 103.996 51.5335 104.343 53.0804 105.258C48.4991 105.479 46.2583 107.908 45.1846 109.735C45.212 107.669 45.9159 105.816 47.9389 104.863V104.864Z" fill="#CCC4F7"/>
<path d="M31.9818 104.372C32.0916 106.537 31.5689 119.825 31.168 129.544C31.1149 130.824 31.0655 132.042 31.0188 133.166C30.5703 133.074 30.1419 132.969 29.7419 132.849C29.8307 131.141 30.0613 126.522 30.2627 121.45C30.5126 115.216 30.7186 108.299 30.5639 105.258C30.2508 99.0905 5.62224 82.1839 5.62224 82.1839C2.30041 80.9536 -1.04977 81.9596 -3.80957 83.5304C-3.53588 83.3427 -3.25579 83.1615 -2.97203 82.9866C-0.108795 81.2273 3.48124 79.9788 7.04015 81.2969C7.04015 81.2969 31.6687 98.2044 31.9818 104.371V104.372Z" fill="#CC4F00"/>
<path d="M44.0658 116.608C44.5299 118.154 44.907 119.658 45.1514 121.053C44.2223 120.54 43.4452 119.787 42.8822 118.791C42.8319 118.702 42.5362 118.233 42.0447 117.472C42.0438 117.471 42.0438 117.468 42.0419 117.465C41.7325 116.568 41.403 115.668 41.0634 114.78C39.7709 111.401 38.3192 108.176 37.1905 105.797C36.0061 103.297 34.8481 100.784 33.7369 98.251C28.7555 86.8878 23.1261 78.9974 19.1479 74.2641C20.2098 73.7836 21.2185 73.4165 22.176 73.1428C25.9472 77.9786 30.686 85.1596 34.9488 94.8844C36.0601 97.4171 37.218 99.9307 38.4025 102.431C39.5311 104.81 40.9829 108.034 42.2753 111.413C42.6149 112.303 42.9445 113.202 43.2539 114.099C43.2548 114.101 43.2548 114.104 43.2566 114.105C43.5459 114.943 43.8177 115.781 44.0649 116.608H44.0658Z" fill="#CC4F00"/>
<path d="M38.3424 77.7189L37.8343 78.4603C36.4943 77.0287 35.3876 75.9174 34.6343 75.2419C34.6343 75.2419 33.3766 73.965 30.9536 73.1439C31.2548 72.6917 31.6236 72.2212 32.0593 71.802C33.2072 72.4428 33.7949 73.0396 33.7949 73.0396C34.4997 73.6702 35.5112 74.6817 36.735 75.9797C36.8201 76.0712 36.9071 76.1637 36.995 76.257C37.4215 76.7129 37.8719 77.2008 38.3414 77.7179L38.3424 77.7189Z" fill="#CC4F00"/>
<path d="M45.7441 85.2033C45.5061 85.6976 45.2746 86.1874 45.0503 86.6743C42.3894 83.4807 39.8492 80.611 37.8354 78.4608L38.3435 77.7185L38.5476 77.4219C38.587 77.3652 38.6263 77.3075 38.6666 77.2507C38.8222 77.4128 38.9806 77.5812 39.1444 77.7533C39.2295 77.8448 39.3165 77.9373 39.4044 78.0306C41.1957 79.9446 43.4054 82.428 45.745 85.2024L45.7441 85.2033Z" fill="#CC4F00"/>
<path d="M46.7936 86.457C46.5584 86.9596 46.3286 87.4594 46.1071 87.9518C45.7538 87.5207 45.4004 87.095 45.0508 86.6749C45.275 86.1888 45.5066 85.6982 45.7446 85.2048C46.0915 85.6149 46.4412 86.0332 46.7936 86.4561V86.457Z" fill="#CC4F00"/>
<path d="M62.5074 112.773C61.5481 114.097 60.5056 115.247 59.419 116.223C59.9435 115.64 60.4525 115.013 60.9394 114.342C63.3633 110.998 55.0345 98.9505 46.9391 88.9703C46.9336 88.9639 46.9281 88.9566 46.9226 88.9502C46.6498 88.6143 46.3789 88.2829 46.1079 87.9515C46.3294 87.4591 46.5592 86.9593 46.7944 86.4568C46.9088 86.216 47.0242 85.9753 47.1404 85.7336C47.3189 85.9488 47.4974 86.1657 47.6759 86.3835C47.9469 86.714 48.2178 87.0463 48.4906 87.3822C48.4961 87.3886 48.5016 87.3959 48.5071 87.4023C56.6025 97.3815 64.9313 109.43 62.5074 112.774V112.773Z" fill="#CC4F00"/>
<path d="M56.1618 71.8412L55.1824 73.6563H55.1815C52.1095 76.4601 49.3287 81.1934 47.1391 85.7326C47.0229 85.9743 46.9076 86.215 46.7931 86.4558C46.4407 86.0329 46.0911 85.6146 45.7441 85.2045C47.9254 80.6945 50.688 76.0106 53.7389 73.228H53.7398C54.1563 72.8444 54.5801 72.4984 55.0075 72.1945C55.143 72.0984 55.2803 72.0041 55.4167 71.9172C55.6181 71.7863 55.8213 71.6664 56.0245 71.5547C56.0712 71.6462 56.1179 71.7423 56.1609 71.8412H56.1618Z" fill="#CC4F00"/>
<path d="M111.605 59.6592C111.505 61.5457 110.222 63.37 108.584 64.9527C108.373 65.1577 108.155 65.3591 107.932 65.5559C107.565 65.1412 107.243 64.7504 106.984 64.3943C107.496 64.0556 108 63.695 108.479 63.3151C109.834 62.2423 110.998 61.0084 111.605 59.6601V59.6592Z" fill="#CC4F00"/>
<path d="M106.984 64.3936C107.244 64.7496 107.564 65.1414 107.931 65.5551C107.056 66.3295 106.116 67.0353 105.221 67.6458C105.083 67.0023 104.877 66.389 104.611 65.805C105.379 65.3922 106.19 64.9199 106.983 64.3936H106.984Z" fill="#CC4F00"/>
<path d="M104.613 65.8054C104.877 66.3894 105.084 67.0027 105.222 67.6462C103.005 69.1602 101.066 70.1012 101.066 70.1012C101.066 70.1012 98.3114 72.1928 94.4989 71.5191C93.8417 70.2495 93.4243 69.1501 93.1606 68.2604C97.1946 69.7323 100.493 67.703 100.493 67.703C100.493 67.703 102.37 67.01 104.613 65.8054Z" fill="#CC4F00"/>
<path d="M168.289 91.7419C168.382 92.3057 168.427 92.9007 168.398 93.5167C157.256 88.7294 135.815 83.003 129.678 84.4593C127.976 84.8639 126.531 86.268 125.964 88.8429C124.727 94.4449 122.353 113.628 121.607 124.022C121.607 124.022 121.369 126.631 121.386 130.006C120.965 130.097 120.535 130.169 120.097 130.212C120.059 129.372 120.041 128.551 120.038 127.771C120.031 126.583 120.057 125.488 120.093 124.571C120.158 122.882 120.258 121.787 120.258 121.787C121.004 111.394 123.379 92.2114 124.615 86.6085C125.183 84.0346 126.627 82.6295 128.33 82.2249C134.466 80.7677 155.909 86.4941 167.049 91.2823C167.474 91.437 167.887 91.5899 168.289 91.7419Z" fill="#CC4F00"/>
<path d="M180.59 103.105C180.702 103.526 180.782 103.937 180.837 104.338C171.399 102.283 157.534 101.918 149.685 102.529C149.566 102.538 149.447 102.549 149.329 102.562C143.712 103.143 139.11 107.288 137.768 112.772L132.44 136.166L132.352 136.548C131.53 136.271 130.779 136.095 130.109 135.988L130.357 134.901L130.445 134.518L135.774 111.124C137.115 105.639 141.718 101.496 147.335 100.914C147.453 100.902 147.572 100.891 147.691 100.881C155.539 100.271 169.405 100.635 178.842 102.69C179.443 102.821 180.027 102.958 180.59 103.105Z" fill="#CC4F00"/>
<path d="M105.222 67.6462C105.952 71.0349 104.824 75.262 100.77 80.528C100.189 79.4003 99.4638 78.3403 98.6071 77.3737C96.6729 75.1906 95.3722 73.2052 94.498 71.5191C98.3105 72.1928 101.065 70.1012 101.065 70.1012C101.065 70.1012 103.004 69.1602 105.221 67.6462H105.222Z" fill="#FF6300"/>
<path d="M111.606 59.6594C110.999 61.0077 109.834 62.2416 108.48 63.3144C107.999 63.6943 107.496 64.0558 106.985 64.3936C106.192 64.919 105.381 65.3922 104.613 65.8051C102.37 67.0097 100.493 67.7026 100.493 67.7026C100.493 67.7026 97.1951 69.7319 93.1611 68.26C92.1945 67.9076 91.1848 67.3538 90.167 66.5218C84.9119 62.2214 87.636 57.1266 87.636 57.1266C87.636 57.1266 91.2077 64.3002 94.1405 63.4855C97.0751 62.6709 102.615 59.4909 103.093 56.5691C103.506 54.0446 100.469 49.9987 97.4459 49.3808C99.9173 47.8366 102.489 46.611 104.671 46.3721C115.125 45.2279 126.432 53.1512 132.9 61.4232C133.894 62.6928 134.869 63.9203 135.775 65.0508V65.0536C135.419 64.9849 135.064 64.9272 134.705 64.8787C129.117 64.13 121.988 65.6211 118.936 76.5404C118.287 73.8712 116.29 72.4167 116.29 72.4167C113.777 71.1279 110.062 67.958 107.931 65.5561C108.155 65.3593 108.372 65.1579 108.584 64.9529C110.221 63.3702 111.504 61.5459 111.605 59.6594H111.606Z" fill="#FF6300"/>
<path d="M95.2923 117.353C95.5111 116.468 95.8113 115.516 96.2068 114.482C97.6347 110.756 101.983 91.982 102.327 89.4007C102.736 86.326 102.166 83.2358 100.77 80.5281C104.824 75.2612 105.952 71.035 105.222 67.6463C106.116 67.0358 107.056 66.3301 107.932 65.5557C110.063 67.9576 113.778 71.1274 116.292 72.4163C116.292 72.4163 118.288 73.8708 118.937 76.5399C118.851 76.853 118.768 77.1724 118.686 77.5001C114.939 92.7765 111.343 110.534 111.794 120.719V120.721C111.87 122.42 112.059 123.909 112.377 125.139C112.713 126.435 113.195 127.446 113.841 128.117C115.669 130.014 117.95 130.436 120.098 130.212C120.536 130.169 120.966 130.096 121.387 130.005C121.405 133.716 121.731 138.355 123.021 141.477H123.022C123.516 142.675 124.154 143.648 124.968 144.262C125.819 144.901 126.835 145.318 127.929 145.569C128.668 145.74 129.443 145.833 130.229 145.87L129.906 147.292C132.2 149.229 136.734 150.135 136.734 150.135C136.734 150.135 140.26 145.31 140.719 141.853C141.28 137.625 135.582 136.477 132.44 136.163L137.769 112.77C139.11 107.285 143.713 103.141 149.329 102.56C149.448 102.547 149.567 102.536 149.686 102.527C157.534 101.916 171.4 102.281 180.837 104.336C184.466 105.126 187.441 106.165 189.168 107.496C196.37 113.047 196.94 125.958 189.168 135.61C182.539 143.843 174.005 160.053 174.005 160.053C174.005 160.053 160.24 192.31 151.112 201.753C143.247 209.89 134.019 205.563 134.019 205.563C82.0572 187.275 96.1079 141.823 96.1079 141.823C100.122 128.727 92.8758 127.075 95.2932 117.351L95.2923 117.353Z" fill="#FF6300"/>
<path d="M125.887 143.507L128.299 143.943L128.235 144.224H128.234L127.929 145.569C126.834 145.319 125.82 144.902 124.968 144.262C124.153 143.649 123.516 142.676 123.022 141.479H123.021C121.731 138.355 121.404 133.716 121.387 130.006C121.369 126.631 121.607 124.022 121.607 124.022C122.353 113.628 124.728 94.4458 125.964 88.8429C126.532 86.2689 127.976 84.8639 129.679 84.4593C135.815 83.002 157.258 88.7285 168.398 93.5167C172.522 95.017 175.633 96.4385 176.887 97.4912C179.033 99.2954 180.109 101.274 180.591 103.105C180.028 102.96 179.444 102.821 178.843 102.69C169.405 100.635 155.54 100.27 147.691 100.882C147.572 100.891 147.453 100.902 147.335 100.915C141.719 101.496 137.116 105.641 135.774 111.125L130.446 134.518L130.358 134.901L130.11 135.988C129.847 135.946 129.597 135.915 129.359 135.893C127.652 135.735 126.163 137.046 126.09 138.759L125.886 143.508L125.887 143.507Z" fill="#FF6300"/>
<path d="M120.258 121.788C120.258 121.788 120.158 122.882 120.092 124.571L119.961 124.566L120.41 113.513C120.436 112.888 120.124 112.299 119.596 111.965C117.076 110.362 114.946 110.767 113.771 111.239C113.177 111.479 112.762 112.027 112.692 112.664L111.794 120.719C111.343 110.534 114.938 92.7772 118.686 77.5008C118.767 77.1731 118.85 76.8536 118.936 76.5406C121.988 65.6213 129.117 64.1302 134.706 64.879C135.065 64.9275 135.421 64.9851 135.775 65.0538C139.057 65.6836 142.128 67.1591 144.724 69.2836L165.881 86.5976C165.881 86.5976 167.791 88.7487 168.289 91.7428C167.887 91.5909 167.474 91.4371 167.049 91.2833C155.908 86.496 134.466 80.7695 128.33 82.2259C126.627 82.6305 125.183 84.0346 124.615 86.6095C123.379 92.2115 121.004 111.395 120.258 121.788V121.788Z" fill="#FF6300"/>
<path d="M41.6421 72.9324C41.9514 73.121 42.2416 73.3114 42.5025 73.4963C42.1199 73.7801 41.7647 74.0528 41.4462 74.3055C41.2942 74.4254 41.145 74.5499 40.9977 74.6771C40.1171 75.435 39.3354 76.3009 38.6663 77.2511C38.626 77.3078 38.5866 77.3655 38.5473 77.4223L38.3431 77.7188C37.8736 77.2017 37.4232 76.7138 36.9966 76.2598C36.9088 76.1646 36.8218 76.0721 36.7367 75.9815C35.5128 74.6826 34.5005 73.672 33.7965 73.0414C33.7965 73.0414 33.2089 72.4446 32.061 71.8038C33.1924 70.7127 34.7833 69.9539 36.8749 70.6779C38.2507 71.153 40.1674 72.0372 41.6421 72.9343V72.9324Z" fill="#FF6300"/>
<path d="M56.0258 71.5542C55.8217 71.6659 55.6194 71.7858 55.418 71.9167C55.2816 72.0046 55.1443 72.0979 55.0088 72.194C54.5805 72.4979 54.1576 72.8439 53.7411 73.2266H53.7402C50.6893 76.0102 47.9277 80.694 45.7454 85.2031C43.4058 82.4286 41.1961 79.9453 39.4048 78.0322C39.3169 77.937 39.23 77.8445 39.1448 77.7539C38.981 77.5818 38.8226 77.4134 38.667 77.2514C39.3361 76.3012 40.1179 75.4344 40.9984 74.6774C41.0085 75.2147 41.3206 75.6303 42.0666 75.8491C46.2086 77.0628 52.2143 69.3546 52.2143 69.3546C52.2143 69.3546 54.6848 68.9399 56.0267 71.5551L56.0258 71.5542Z" fill="#FF6300"/>
<path d="M46.9377 88.9701C55.0331 98.9494 63.3619 110.998 60.9381 114.342C60.452 115.014 59.9422 115.641 59.4177 116.223H59.4167C59.4167 116.223 59.414 116.227 59.4131 116.229C54.7457 121.408 48.784 123.063 45.1527 121.054C44.9083 119.659 44.5303 118.154 44.0671 116.608C43.82 115.783 43.5481 114.945 43.2589 114.106C43.258 114.105 43.258 114.102 43.2561 114.099C42.9467 113.202 42.6172 112.303 42.2776 111.414C40.9851 108.035 39.5334 104.81 38.4047 102.431C37.2203 99.9315 36.0623 97.418 34.9511 94.8852C30.6883 85.1604 25.9495 77.9795 22.1782 73.1436C25.9266 72.0708 28.8713 72.4379 30.9546 73.1436C33.3767 73.9647 34.6353 75.2416 34.6353 75.2416C35.3896 75.9172 36.4953 77.0284 37.8354 78.46C39.8501 80.6111 42.3902 83.4808 45.0502 86.6744C45.3999 87.0955 45.7532 87.5211 46.1065 87.9513C46.3775 88.2818 46.6484 88.6141 46.9212 88.95C46.9267 88.9564 46.9322 88.9637 46.9377 88.9701ZM59.2437 112.741C59.2437 112.741 56.7265 107.417 53.0797 105.259C51.5328 104.343 49.7844 103.996 47.9382 104.865C45.9152 105.818 45.2113 107.67 45.1839 109.737V109.74C45.1271 114.001 47.9382 119.16 47.9382 119.16C55.3773 117.921 59.2428 112.742 59.2428 112.742L59.2437 112.741Z" fill="#FF6300"/>
<path d="M11.0047 68.155C12.8464 68.4003 14.5426 69.2836 15.8442 70.609C16.7138 71.4942 17.8434 72.7089 19.1505 74.265C23.1286 78.9983 28.7572 86.8886 33.7394 98.2519C34.8507 100.785 36.0086 103.298 37.1931 105.798C38.3217 108.177 39.7735 111.402 41.0659 114.78C32.0881 115.629 33.6909 129.492 33.6909 129.492C33.6909 129.492 39.7176 131.323 44.1681 128.831C44.1415 129.036 44.1077 129.234 44.0647 129.424C43.1868 133.349 35.8951 134.151 31.019 133.167C31.0657 132.045 31.1151 130.826 31.1682 129.546C31.5682 119.826 32.0918 106.539 31.982 104.374C31.6689 98.2061 7.04034 81.2995 7.04034 81.2995C3.48143 79.9823 -0.108603 81.2299 -2.97184 82.9892C-3.25651 83.165 -3.53752 83.3462 -3.81213 83.5348H-3.81304C-4.00801 83.6455 -4.20116 83.76 -4.38972 83.8762C-5.98702 84.8584 -7.43053 86.0557 -8.69189 87.4223L-5.78197 78.1735C-5.03047 75.7845 -3.6382 73.637 -1.72419 72.0214C0.948645 69.7651 5.24165 67.3888 11.0047 68.1568V68.155Z" fill="#FF6300"/>
<path d="M-12.0265 92.1914C-11.9606 92.0688 -11.8956 91.9498 -11.8343 91.8326C-10.9738 90.2289 -9.91842 88.7451 -8.69367 87.4197C-7.4314 86.0531 -5.9888 84.8558 -4.3915 83.8736C-4.20294 83.7573 -4.00979 83.6429 -3.81482 83.5331C-3.81391 83.5322 -3.81207 83.5303 -3.81116 83.5303C-1.05044 81.9596 2.29885 80.9536 5.62067 82.1838C5.62067 82.1838 30.2492 99.0914 30.5623 105.258C30.717 108.299 30.5101 115.216 30.2611 121.45C23.0921 124.164 21.4728 133.548 21.4728 133.548C23.7548 135.302 26.1265 135.045 27.7347 134.505H27.7357C28.932 134.105 29.7046 133.548 29.7046 133.548C29.7046 133.548 29.7174 133.3 29.7403 132.849C30.1403 132.969 30.5687 133.074 31.0172 133.166C35.8933 134.15 43.185 133.348 44.0629 129.423C44.1059 129.232 44.1398 129.035 44.1663 128.829C44.5453 125.996 43.5201 121.757 42.0445 117.472C42.5361 118.233 42.8317 118.702 42.882 118.791C43.445 119.787 44.2221 120.54 45.1512 121.054C48.7824 123.063 54.7442 121.407 59.4116 116.228L59.4152 116.224H59.4161C60.5036 115.247 61.5462 114.097 62.5045 112.773C64.9284 109.429 56.5996 97.3815 48.5042 87.4014C48.4987 87.395 48.4932 87.3876 48.4877 87.3812C48.2149 87.0453 47.944 86.7139 47.673 86.3826C47.4945 86.1647 47.316 85.9478 47.1375 85.7327C49.3271 81.1934 52.1079 76.4601 55.1799 73.6573H55.1808C55.5973 73.2738 56.0211 72.9278 56.4485 72.6239C56.584 72.5278 56.7213 72.4335 56.8577 72.3465C58.012 71.6014 59.1974 71.163 60.4011 71.1364C61.5819 71.1099 62.5714 71.6554 63.4034 72.6312C61.7054 73.2555 59.7557 74.2871 59.1461 75.8478C58.3369 77.9229 58.2298 91.7987 63.5929 90.3479C65.355 89.8719 66.6483 89.3319 67.5939 88.8202C67.8868 91.8125 68.0928 94.8368 68.2933 97.5801C68.6264 102.135 68.4049 105.531 67.7587 108.277C66.5733 113.31 65.9518 118.456 65.9042 123.626C65.8712 127.356 65.657 131.426 64.7627 135.612C59.2404 161.469 40.9937 175.045 17.7738 169.301C-14.9492 173.219 -29.7597 156.142 -29.7597 156.142C-36.417 144.508 -33.6646 127.057 -29.7597 110.525C-27.2324 99.8255 -18.1346 94.5695 -12.0292 92.1924L-12.0265 92.1914Z" fill="#FF6300"/>
<path d="M132.352 136.547L130.574 144.353L128.298 143.943L128.375 143.604L128.579 142.706L130.11 135.987C130.78 136.093 131.53 136.27 132.352 136.547Z" fill="#D4B3FF"/>
<path d="M30.2625 121.45C30.0611 126.521 29.8304 131.141 29.7416 132.849C29.7187 133.3 29.7059 133.548 29.7059 133.548C29.7059 133.548 28.9333 134.105 27.737 134.505H27.7361C26.1269 135.045 23.7552 135.302 21.4741 133.548C21.4741 133.548 23.0934 124.164 30.2625 121.45Z" fill="#FCFCFC"/>
<path d="M42.0469 117.472C43.5224 121.756 44.5476 125.996 44.1687 128.829C39.7182 131.321 33.6915 129.49 33.6915 129.49C33.6915 129.49 32.0887 115.627 41.0665 114.779C41.4061 115.668 41.7357 116.567 42.0451 117.464C42.046 117.467 42.046 117.47 42.0478 117.471L42.0469 117.472Z" fill="#FCFCFC"/>
<path d="M42.5014 73.4958C45.0873 71.5864 48.9657 69.2266 52.2124 69.3538C52.2124 69.3538 46.2059 77.062 42.0648 75.8483C41.3188 75.6295 41.0067 75.2139 40.9966 74.6766C41.144 74.5503 41.2931 74.4258 41.4451 74.305C41.7646 74.0514 42.1188 73.7796 42.5014 73.4958Z" fill="#FCFCFC"/>
<path d="M67.598 88.8195C66.6525 89.333 65.3591 89.8721 63.597 90.349C58.234 91.7999 58.3401 77.924 59.1502 75.8489C59.7598 74.2882 61.7096 73.2566 63.4075 72.6323C65.8506 75.4992 66.9426 82.0806 67.599 88.8195H67.598Z" fill="#FCFCFC"/>
<path d="M53.0804 105.259C56.7262 107.418 59.2444 112.741 59.2444 112.741C59.2444 112.741 55.3788 117.92 47.9397 119.16C47.9397 119.16 45.1287 114 45.1854 109.739V109.736C46.2582 107.909 48.4999 105.481 53.0813 105.259H53.0804Z" fill="#FCFCFC"/>
<path d="M132.439 136.165C135.579 136.478 141.278 137.627 140.717 141.855C140.259 145.312 136.733 150.137 136.733 150.137C136.733 150.137 132.198 149.231 129.904 147.294L130.227 145.872H130.228L130.573 144.354L132.351 136.549L132.439 136.166V136.165Z" fill="#FCFCFC"/>
<path d="M130.11 135.988L128.58 142.707L128.376 143.605L128.299 143.944L125.887 143.508L126.091 138.759C126.164 137.046 127.653 135.735 129.36 135.893C129.598 135.915 129.848 135.946 130.111 135.988H130.11Z" fill="#FCFCFC"/>
<path d="M119.597 111.965C120.124 112.299 120.435 112.889 120.411 113.513L119.961 124.566L119.917 125.642C119.91 125.833 119.717 125.96 119.538 125.894C118.5 125.506 115.406 124.513 112.378 125.139C112.06 123.908 111.87 122.42 111.794 120.721V120.718L112.692 112.663C112.764 112.026 113.178 111.478 113.772 111.238C114.947 110.766 117.077 110.361 119.597 111.964V111.965Z" fill="#FCFCFC"/>
<path d="M97.4456 49.381C100.468 49.9989 103.505 54.0448 103.092 56.5693C102.615 59.4912 97.0749 62.6711 94.1402 63.4858C91.2074 64.3004 87.6357 57.1268 87.6357 57.1268C87.6357 57.1268 88.0376 56.7368 88.7342 56.1052C90.4193 54.5784 93.8272 51.6392 97.4447 49.3801H97.4456V49.381Z" fill="#FCFCFC"/>
<path d="M67.598 88.8198C66.6525 89.3315 65.3591 89.8716 63.597 90.3476C58.234 91.7984 58.3401 77.9225 59.1502 75.8474C59.7598 74.2867 61.7096 73.2551 63.4075 72.6309" stroke="black" stroke-width="0.549213" stroke-linecap="round" stroke-linejoin="round"/>
<path d="M45.1846 109.736C45.212 107.67 45.9159 105.817 47.9389 104.864C49.7851 103.996 51.5335 104.343 53.0804 105.258C56.7263 107.416 59.2444 112.74 59.2444 112.74C59.2444 112.74 55.3789 117.919 47.9398 119.159C47.9398 119.159 45.1287 113.999 45.1855 109.738" stroke="black" stroke-width="0.549213" stroke-linecap="round" stroke-linejoin="round"/>
<path d="M37.8346 78.4593C36.4945 77.0277 35.3878 75.9164 34.6345 75.2409C34.6345 75.2409 33.3768 73.964 30.9539 73.1429C28.8714 72.4372 25.9267 72.0701 22.1774 73.1429C21.22 73.4166 20.2112 73.7837 19.1494 74.2642" stroke="black" stroke-width="0.549213" stroke-linecap="round" stroke-linejoin="round"/>
<path d="M59.4177 116.223C59.9422 115.64 60.4511 115.013 60.9381 114.342C63.362 110.998 55.0331 98.9503 46.9377 88.9701C46.9323 88.9637 46.9268 88.9564 46.9213 88.95C46.6485 88.6141 46.3775 88.2827 46.1066 87.9514C45.7533 87.5202 45.4 87.0946 45.0503 86.6744C42.3894 83.4808 39.8492 80.6111 37.8354 78.4609" stroke="black" stroke-width="0.549213" stroke-linecap="round" stroke-linejoin="round"/>
<path d="M42.0454 117.471C42.537 118.233 42.8326 118.702 42.883 118.79C43.4459 119.786 44.223 120.54 45.1521 121.053C48.7833 123.062 54.7451 121.406 59.4125 116.227" stroke="black" stroke-width="0.549213" stroke-linecap="round" stroke-linejoin="round"/>
<path d="M37.8354 78.461L38.3435 77.7186L38.5476 77.4221C38.587 77.3653 38.6263 77.3076 38.6666 77.2509C39.3357 76.3008 40.1174 75.4339 40.998 74.6769C41.1454 74.5506 41.2946 74.4261 41.4465 74.3053C41.766 74.0517 42.1202 73.7799 42.5028 73.4961C45.0887 71.5867 48.9671 69.2269 52.2139 69.3541C52.2139 69.3541 54.6844 68.9395 56.0263 71.5546C56.073 71.6462 56.1197 71.7423 56.1627 71.8411" stroke="black" stroke-width="0.549213" stroke-linecap="round" stroke-linejoin="round"/>
<path d="M40.9966 74.6766C41.0067 75.2139 41.3188 75.6294 42.0648 75.8482C46.2068 77.062 52.2124 69.3538 52.2124 69.3538" stroke="black" stroke-width="0.549213" stroke-linecap="round" stroke-linejoin="round"/>
<path d="M30.9536 73.1435C31.2548 72.6913 31.6236 72.2208 32.0593 71.8016C33.1907 70.7105 34.7816 69.9517 36.8732 70.6757C38.249 71.1508 40.1658 72.035 41.6404 72.9321C41.9498 73.1206 42.2399 73.311 42.5008 73.4959" stroke="black" stroke-width="0.549213" stroke-linecap="round" stroke-linejoin="round"/>
<path d="M97.4463 49.3808C99.9178 47.8366 102.489 46.611 104.671 46.3721C115.125 45.2279 126.432 53.1512 132.901 61.4232C133.894 62.6928 134.87 63.9203 135.775 65.0508" stroke="black" stroke-width="0.549213" stroke-linecap="round" stroke-linejoin="round"/>
<path d="M112.051 57.5406C112.075 58.2729 111.91 58.9813 111.606 59.6605C110.999 61.0089 109.834 62.2428 108.48 63.3156C107.999 63.6954 107.496 64.057 106.985 64.3948C106.192 64.9202 105.381 65.3934 104.613 65.8062C102.37 67.0109 100.493 67.7038 100.493 67.7038C100.493 67.7038 97.1951 69.7331 93.1611 68.2612C92.1945 67.9088 91.1848 67.355 90.167 66.523C84.9119 62.2226 87.636 57.1278 87.636 57.1278C87.636 57.1278 88.0378 56.7378 88.7344 56.1062C90.4196 54.5794 93.8275 51.6402 97.445 49.3811" stroke="black" stroke-width="0.549213" stroke-linecap="round" stroke-linejoin="round"/>
<path d="M106.984 64.3936C107.244 64.7496 107.565 65.1414 107.932 65.5551C110.063 67.957 113.777 71.1269 116.291 72.4157C116.291 72.4157 119.7 71.7429 121.195 67.2293" stroke="black" stroke-width="0.549213" stroke-linecap="round" stroke-linejoin="round"/>
<path d="M116.291 72.416C116.291 72.416 118.287 73.8705 118.936 76.5397" stroke="black" stroke-width="0.549213" stroke-linecap="round" stroke-linejoin="round"/>
<path d="M97.4447 49.3811H97.4456C100.468 49.999 103.505 54.0448 103.092 56.5694C102.615 59.4912 97.0749 62.6712 94.1402 63.4858C91.2074 64.3005 87.6357 57.1268 87.6357 57.1268" stroke="black" stroke-width="0.549213" stroke-linecap="round" stroke-linejoin="round"/>
<path d="M111.794 120.719C111.343 110.534 114.938 92.7772 118.686 77.5008C118.767 77.1731 118.85 76.8536 118.936 76.5406C121.988 65.6213 129.117 64.1302 134.706 64.879C135.065 64.9275 135.421 64.9851 135.775 65.0538C139.057 65.6836 142.128 67.1591 144.724 69.2836L165.881 86.5976C165.881 86.5976 167.791 88.7487 168.289 91.7428C168.382 92.3067 168.427 92.9017 168.398 93.5177" stroke="black" stroke-width="0.549213" stroke-linecap="round" stroke-linejoin="round"/>
<path d="M121.386 130.006C120.965 130.097 120.535 130.17 120.097 130.213C117.949 130.437 115.668 130.015 113.84 128.118C113.193 127.447 112.712 126.436 112.376 125.14C112.058 123.91 111.869 122.421 111.793 120.722" stroke="black" stroke-width="0.549213" stroke-linecap="round" stroke-linejoin="round"/>
<path d="M112.376 125.14C115.404 124.513 118.499 125.507 119.537 125.895C119.715 125.961 119.908 125.834 119.916 125.643L119.96 124.567L120.409 113.514C120.435 112.889 120.123 112.3 119.595 111.966C117.075 110.363 114.945 110.768 113.77 111.24C113.176 111.48 112.761 112.028 112.691 112.665L111.793 120.72V120.723" stroke="black" stroke-width="0.549213" stroke-linecap="round" stroke-linejoin="round"/>
<path d="M-8.69189 87.4201L-5.78197 78.1713C-5.03047 75.7823 -3.6382 73.6348 -1.72419 72.0192C0.948645 69.7629 5.24165 67.3866 11.0047 68.1546C12.8336 68.3981 14.5252 69.2668 15.8186 70.583C16.6918 71.4709 17.8296 72.6939 19.1505 74.2646C23.1286 78.9979 28.7572 86.8883 33.7394 98.2515C34.8507 100.784 36.0086 103.298 37.1931 105.798C38.3217 108.177 39.7735 111.402 41.0659 114.78C41.4055 115.67 41.7351 116.569 42.0445 117.466C42.0454 117.468 42.0454 117.471 42.0472 117.472C43.5228 121.757 44.548 125.997 44.169 128.83C44.1424 129.035 44.1086 129.233 44.0656 129.423C43.1877 133.348 35.896 134.15 31.0199 133.166C30.5714 133.074 30.143 132.969 29.743 132.849" stroke="black" stroke-width="0.549213" stroke-linecap="round" stroke-linejoin="round"/>
<path d="M41.0666 114.779C32.0887 115.628 33.6915 129.491 33.6915 129.491C33.6915 129.491 39.7182 131.322 44.1687 128.83" stroke="black" stroke-width="0.549213" stroke-linecap="round" stroke-linejoin="round"/>
<path d="M-3.81055 83.5312C-1.04983 81.9605 2.29946 80.9545 5.62128 82.1847C5.62128 82.1847 30.2498 99.0923 30.5629 105.259C30.7176 108.3 30.5107 115.217 30.2617 121.451" stroke="black" stroke-width="0.549213" stroke-linecap="round" stroke-linejoin="round"/>
<path d="M27.7378 134.504C28.9342 134.104 29.7067 133.548 29.7067 133.548C29.7067 133.548 29.7195 133.3 29.7424 132.848" stroke="black" stroke-width="0.549213" stroke-linecap="round" stroke-linejoin="round"/>
<path d="M29.7426 132.849C29.8314 131.141 30.0621 126.522 30.2634 121.45C23.0944 124.164 21.4751 133.548 21.4751 133.548C23.7571 135.302 26.1288 135.045 27.737 134.505" stroke="black" stroke-width="0.549213" stroke-linecap="round" stroke-linejoin="round"/>
<path d="M11.1159 115.485C11.1159 115.485 10.4001 116.84 10.0834 118.9C9.72736 121.221 9.8793 124.438 12.1329 127.621C16.3875 133.634 17.4502 137.914 24.6211 135.957C26.0564 135.566 27.0559 135.061 27.7361 134.504H27.737" stroke="black" stroke-width="0.549213" stroke-linecap="round" stroke-linejoin="round"/>
<path d="M-5.85775 100.777C-5.85775 100.755 -8.5434 103.816 -0.0232709 111.083C5.64004 115.916 8.25339 118.272 10.0832 118.899" stroke="black" stroke-width="0.549213" stroke-linecap="round" stroke-linejoin="round"/>
<path d="M55.1818 73.6582C52.1099 76.461 49.329 81.1934 47.1395 85.7336C47.0232 85.9752 46.9079 86.216 46.7935 86.4567C46.5582 86.9592 46.3284 87.459 46.1069 87.9515" stroke="black" stroke-width="0.549213" stroke-linecap="round" stroke-linejoin="round"/>
<path d="M60.4034 71.1367C59.1997 71.1633 58.0143 71.6017 56.86 72.3468C56.7236 72.4347 56.5863 72.5281 56.4509 72.6242C56.0225 72.9281 55.5996 73.2741 55.1831 73.6567" stroke="black" stroke-width="0.549213" stroke-linecap="round" stroke-linejoin="round"/>
<path d="M-12.0268 92.1914C-18.1322 94.5686 -27.2299 99.8245 -29.7572 110.524C-33.6621 127.056 -36.4146 144.507 -29.7572 156.141C-29.7572 156.141 -14.9468 173.218 17.7763 169.3C40.9961 175.044 59.2428 161.468 64.7652 135.611C65.6595 131.425 65.8737 127.355 65.9066 123.625C65.9551 118.455 66.5757 113.308 67.7611 108.276C68.4074 105.531 68.6289 102.134 68.2957 97.5792C68.0952 94.8358 67.8893 91.8124 67.5964 88.8192C66.94 82.0794 65.848 75.4971 63.4049 72.6302C62.5729 71.6544 61.5834 71.1089 60.4026 71.1354" stroke="black" stroke-width="0.549213" stroke-linecap="round" stroke-linejoin="round"/>
<path d="M123.021 141.479C123.515 142.676 124.152 143.649 124.967 144.262C125.818 144.902 126.833 145.318 127.928 145.569C128.666 145.74 129.442 145.834 130.227 145.87" stroke="black" stroke-width="0.549213" stroke-linecap="round" stroke-linejoin="round"/>
<path d="M180.836 104.338C180.781 103.938 180.702 103.526 180.59 103.105C180.108 101.274 179.032 99.2951 176.886 97.4909C175.632 96.4383 172.521 95.0167 168.397 93.5165C157.256 88.7292 135.814 83.0027 129.678 84.459C127.975 84.8636 126.531 86.2678 125.963 88.8427C124.727 94.4446 122.352 113.628 121.606 124.022C121.606 124.022 121.368 126.63 121.386 130.005C121.403 133.716 121.73 138.355 123.02 141.477" stroke="black" stroke-width="0.549213" stroke-linecap="round" stroke-linejoin="round"/>
<path d="M162.111 122.459C162.111 122.459 160.697 127.695 157.991 133.873C155.461 139.65 151.8 146.249 147.109 150.162C139.475 156.531 129.436 149.349 129.436 149.349L129.904 147.293L130.227 145.87H130.228L130.573 144.353L132.351 136.547L132.439 136.165L137.767 112.771C139.109 107.286 143.712 103.142 149.328 102.561C149.446 102.548 149.565 102.537 149.684 102.528C157.533 101.918 171.398 102.282 180.836 104.337C184.465 105.128 187.44 106.167 189.167 107.498C196.369 113.048 196.939 125.959 189.167 135.611C182.537 143.845 174.003 160.055 174.003 160.055C174.003 160.055 160.239 192.311 151.11 201.755C143.246 209.891 134.018 205.564 134.018 205.564C82.0559 187.276 96.1066 141.824 96.1066 141.824C100.12 128.728 92.8745 127.076 95.292 117.352C95.5107 116.467 95.811 115.515 96.2064 114.482C97.6344 110.755 101.982 91.9815 102.326 89.4002C102.736 86.3255 102.165 83.2352 100.769 80.5276C100.188 79.3999 99.4632 78.3399 98.6065 77.3733C96.6723 75.1902 95.3716 73.2048 94.4974 71.5187C93.8402 70.2491 93.4228 69.1497 93.1592 68.26" stroke="black" stroke-width="0.549213" stroke-linecap="round" stroke-linejoin="round"/>
<path d="M157.99 133.874C163.158 134.581 176.805 135.671 183.113 128.743" stroke="black" stroke-width="0.549213" stroke-linecap="round" stroke-linejoin="round"/>
<path d="M132.439 136.165C135.579 136.478 141.278 137.627 140.717 141.855C140.259 145.312 136.733 150.137 136.733 150.137C136.733 150.137 132.198 149.231 129.904 147.294" stroke="black" stroke-width="0.549213" stroke-linecap="round" stroke-linejoin="round"/>
<path d="M88.5743 55.74L88.0104 56.2571C81.288 54.658 75.0627 54.3743 74.9996 54.3706C74.8247 54.3633 74.6892 54.2159 74.6966 54.0411C74.7039 53.8662 74.8522 53.7308 75.027 53.7381C75.0929 53.7408 81.635 54.0411 88.5743 55.74Z" fill="#FFCE00"/>
<path d="M113.135 133.719C113.074 133.814 112.971 133.866 112.867 133.866C112.809 133.866 112.749 133.85 112.698 133.816C112.593 133.749 102.096 126.998 95.0398 117.543C91.1321 112.309 88.9746 107.206 88.6241 102.376C88.1883 96.3685 90.5564 90.7738 95.6632 85.7476C97.5589 83.8839 99.1928 82.0624 100.521 80.3369C104.208 75.5468 105.686 71.2996 104.915 67.7142C104.813 67.24 104.668 66.7713 104.485 66.3127L105.046 66.0098C105.256 66.5233 105.421 67.0496 105.533 67.5805C106.347 71.3564 104.829 75.7775 101.023 80.7223C99.6779 82.4706 98.0248 84.3141 96.108 86.1988C91.1404 91.0878 88.8355 96.514 89.2575 102.329C89.598 107.037 91.7152 112.027 95.5478 117.164C102.534 126.524 112.935 133.214 113.039 133.281C113.188 133.374 113.231 133.571 113.137 133.719H113.135Z" fill="#FFCE00"/>
<path d="M130.574 144.354L128.299 143.944L125.887 143.508L126.091 138.759C126.164 137.046 127.653 135.735 129.36 135.893C129.598 135.915 129.848 135.946 130.111 135.988C130.781 136.094 131.532 136.271 132.354 136.548" stroke="black" stroke-width="0.549213" stroke-linecap="round" stroke-linejoin="round"/>
</g>
<defs>
<clipPath id="clip0_14_2200">
<rect x="0.5" y="0.833252" width="160" height="160" rx="12" fill="white"/>
</clipPath>
</defs>
</svg>
