<svg id="Cards" width="20" height="20" viewBox="0 0 24 24" fill="currentColor" xmlns="http://www.w3.org/2000/svg"><path fill-rule="evenodd" clip-rule="evenodd" d="M10.1285 3.18125C11.0837 2.42153 12.3262 2.10647 13.6963 2.31094L18.1479 2.97747C18.1479 2.97747 18.1479 2.97746 18.1479 2.97747C19.521 3.18295 20.6175 3.84765 21.3078 4.85437C21.9934 5.85424 22.2323 7.12289 22.0313 8.46442C22.0313 8.46448 22.0313 8.46437 22.0313 8.46442L21.072 14.8783C20.871 16.2197 20.2712 17.3631 19.3229 18.1185C18.7661 18.562 18.1115 18.8539 17.3902 18.9795C16.8837 19.4676 16.2414 19.8435 15.5101 20.0753L11.2284 21.4815C11.2281 21.4816 11.2286 21.4814 11.2284 21.4815C9.91273 21.9161 8.63565 21.816 7.56717 21.2285C6.50585 20.6449 5.72106 19.6208 5.29546 18.3341L3.27125 12.1788C3.27109 12.1783 3.27093 12.1778 3.27077 12.1773C2.84054 10.8856 2.86119 9.593 3.36989 8.49071C3.88195 7.38115 4.85345 6.54182 6.17244 6.10763C6.17262 6.10757 6.17227 6.10769 6.17244 6.10763L8.65918 5.28633C8.96436 4.43613 9.46048 3.7126 10.1285 3.18125ZM9.95257 6.1814C9.9827 6.1141 10.003 6.04231 10.0123 5.96831C10.2288 5.26668 10.5989 4.7237 11.0623 4.35519C11.6584 3.881 12.4717 3.64487 13.4745 3.79445L17.9259 4.46094C18.9326 4.61158 19.6407 5.07554 20.0707 5.70267C20.5054 6.33662 20.703 7.20698 20.5478 8.24236L19.5885 14.6562C19.4334 15.6917 18.9896 16.4662 18.3883 16.9453C18.0102 17.2464 17.544 17.4517 16.9958 17.5226C16.9632 17.5242 16.9308 17.5279 16.8987 17.5337C16.6116 17.5621 16.3028 17.5542 15.9733 17.5049L11.523 16.8384C10.5162 16.6878 9.8081 16.224 9.37798 15.597C8.94318 14.9631 8.74539 14.0927 8.90011 13.0567L9.86039 6.64313C9.88431 6.48302 9.91523 6.32891 9.95257 6.1814ZM8.29215 6.98724L7.4166 12.8348C7.21619 14.1768 7.45522 15.4457 8.14104 16.4455C8.83154 17.4521 9.92792 18.1165 11.301 18.3219L14.5569 18.8095L10.759 20.0568L10.7577 20.0573C9.79492 20.3754 8.95577 20.2802 8.2899 19.9141C7.61681 19.5439 7.0483 18.8563 6.71981 17.8637C6.71988 17.864 6.71973 17.8635 6.71981 17.8637L4.69523 11.7073L4.69428 11.7044C4.3622 10.7082 4.40983 9.81703 4.73185 9.11925C5.05065 8.42847 5.67268 7.85122 6.64186 7.53229L8.29215 6.98724Z" fill="currentColor"></path></svg>